<svg width="125" height="19" viewBox="0 0 125 19" fill="none" xmlns="http://www.w3.org/2000/svg">
<path d="M8.95867 3.00495e-06C6.46485 -0.000901045 4.83097 0.202093 3.05121 0.733854C1.25449 1.27068 0.379868 1.96011 0.0980957 3.06183C0.00522943 3.42494 0 3.60509 0 6.47049C0 9.28022 0.00709925 9.53696 0.0988615 10.0737C0.343461 11.5045 0.870223 12.8072 1.57326 13.7195C2.11933 14.4282 2.91725 15.1923 3.822 15.8729C5.45907 17.1045 6.58554 17.7346 8.477 18.4766C9.11955 18.7287 9.22972 18.7231 10.0356 18.3973C10.72 18.1207 12.0847 17.4547 12.6794 17.1072C13.1246 16.8471 14.1298 16.1392 14.7 15.6843C15.5906 14.9738 16.593 13.9147 17.0387 13.2133C17.252 12.8775 17.6791 11.8448 17.8375 11.2818C18.1965 10.0057 18.1969 10.0008 18.216 6.63654C18.2351 3.28276 18.2266 3.15924 17.9364 2.57202C17.5205 1.73069 16.6891 1.20267 15.0185 0.718924C13.2271 0.200172 11.5479 0.000938905 8.95867 3.00495e-06ZM5.79731 2.89052L8.64391 2.89072C11.674 2.89092 11.9933 2.91054 12.691 3.1385C13.6666 3.45723 14.3109 4.08559 14.6336 5.03294C14.8108 5.55336 14.8502 6.48506 14.7247 7.1875C14.3672 9.18826 13.2043 10.2136 10.9215 10.5407C10.9215 10.5407 10.4159 10.5721 10.29 10.4532C10.1803 10.3495 10.143 10.2048 10.143 10.1846C10.143 10.1644 10.0211 9.88141 9.87207 9.55577L9.60123 8.96375L9.67597 8.53644C9.71708 8.3014 9.75081 7.92764 9.75081 7.70593C9.75105 7.0952 9.7192 7.10338 11.6007 7.23258C11.9464 7.25632 12.0091 7.24871 12.0355 7.17994C12.0543 7.131 12.023 7.05339 11.9554 6.98145C11.8625 6.8825 11.8117 6.86745 11.643 6.8891C11.329 6.92938 10.5201 6.73888 10.067 6.51787L9.67252 6.32541L9.693 5.99227C9.70427 5.80901 9.73374 5.62044 9.75846 5.57328C9.81404 5.46729 9.74926 5.33585 9.57318 5.19736C9.42498 5.08078 9.36082 5.07519 9.01744 5.14883C8.6866 5.21979 8.59971 5.36923 8.67769 5.73282C8.7599 6.11616 8.71898 6.2046 8.44073 6.24569C8.18158 6.28395 7.97326 6.39514 7.79014 6.5928C7.72322 6.66503 7.49849 6.85419 7.29067 7.01313C6.97189 7.25694 6.86664 7.37723 6.61749 7.78268C6.4518 8.05229 6.23585 8.3326 6.12557 8.42121C5.92613 8.58149 5.86873 8.72153 6.0025 8.72153C6.04293 8.72153 6.076 8.74006 6.076 8.76268C6.076 8.78531 6.13373 8.83008 6.20424 8.86221C6.3131 8.91181 6.34248 8.90752 6.39871 8.83341C6.43514 8.78539 6.46559 8.72737 6.46647 8.70449C6.47204 8.5557 6.67073 8.29556 6.95312 8.0674C7.34391 7.75165 7.93508 7.34953 8.00834 7.34962C8.03702 7.34966 8.0956 7.53157 8.1385 7.75387C8.21183 8.13387 8.21124 8.17045 8.12883 8.36436C8.08062 8.47781 8.02568 8.65333 8.00671 8.75445C7.98369 8.87717 7.83429 9.11819 7.55748 9.47921C7.32939 9.7767 7.12873 10.0201 7.1116 10.02C7.09448 10.02 6.93669 9.94771 6.76085 9.85944C6.41218 9.68441 6.15026 9.62327 5.95704 9.67176C5.7885 9.71407 5.488 9.98497 5.488 10.0946C5.488 10.2132 5.56262 10.2314 5.84048 10.1809C6.13373 10.1276 6.28396 10.199 6.63175 10.5566C6.94809 10.8819 7.02616 10.923 7.23745 10.8753C7.4143 10.8354 7.5039 10.7785 8.09074 10.334C8.67548 9.89113 8.64561 9.89514 8.81876 10.2381C8.90029 10.3996 8.967 10.5388 8.967 10.5474C8.967 10.5559 8.90725 10.5621 8.83416 10.561C8.70192 10.5591 8.70009 10.5637 8.46839 11.5145C8.34032 12.0401 8.2348 12.4838 8.23382 12.5007C8.23285 12.5175 8.29808 12.5445 8.37881 12.5607C8.8506 12.655 9.11109 13.2131 8.86881 13.6105C8.815 13.6988 8.71035 13.796 8.63625 13.8265C8.47383 13.8934 4.11601 13.9148 4.116 13.8487C4.11599 13.8254 4.17025 13.4837 4.23659 13.0892C4.30291 12.6948 4.53557 11.2034 4.75357 9.77503C4.97159 8.34668 5.2041 6.82523 5.27028 6.39403C5.44604 5.24885 5.67906 3.70678 5.74228 3.27028L5.79731 2.89052ZM8.17018 12.7003C8.00287 12.7003 7.84241 12.7554 7.7241 12.8536C7.60579 12.9517 7.53932 13.0849 7.5393 13.2237C7.5393 13.2924 7.55561 13.3605 7.58731 13.424C7.61901 13.4875 7.66548 13.5452 7.72406 13.5938C7.78265 13.6425 7.85219 13.681 7.92874 13.7073C8.00528 13.7336 8.08732 13.7472 8.17018 13.7472C8.25304 13.7472 8.33509 13.7337 8.41164 13.7073C8.4882 13.681 8.55776 13.6425 8.61635 13.5939C8.67494 13.5453 8.72142 13.4875 8.75313 13.424C8.78484 13.3605 8.80115 13.2924 8.80115 13.2237C8.80113 13.0849 8.73464 12.9517 8.61631 12.8536C8.49798 12.7554 8.3375 12.7003 8.17018 12.7003Z" fill="#007AFF"/>
<path d="M75.9278 5.4041C75.3494 5.4041 74.815 5.49598 74.325 5.67973C73.8384 5.86348 73.43 6.12379 73.1 6.46067C72.7563 6.81116 72.4944 7.23149 72.3141 7.72149C72.1338 8.21149 72.0434 8.75764 72.0434 9.35993C72.0434 10.0065 72.1371 10.5763 72.3242 11.0697C72.5148 11.5631 72.782 11.9748 73.1257 12.3049C73.4693 12.6349 73.8792 12.8835 74.3556 13.0502C74.8354 13.217 75.3578 13.3002 75.9227 13.3002C76.3038 13.3002 76.6031 13.2815 76.8209 13.2441C77.0387 13.2067 77.2719 13.1523 77.5203 13.0809C77.7109 13.0264 77.8929 12.9616 78.0664 12.8867C78.2399 12.8119 78.4219 12.732 78.6124 12.6469V10.8299H78.4085C78.3166 10.9116 78.1992 11.0086 78.0563 11.1209C77.9134 11.2332 77.7584 11.3386 77.5917 11.4372C77.3944 11.5597 77.1782 11.6567 76.9434 11.7282C76.712 11.7996 76.4772 11.8354 76.239 11.8354C75.9906 11.8354 75.739 11.7963 75.4838 11.7181C75.2286 11.6364 74.9971 11.5019 74.7895 11.3147C74.5854 11.131 74.4151 10.8791 74.279 10.5592C74.1463 10.2394 74.0799 9.84124 74.0799 9.36485C74.0799 8.90888 74.1412 8.52096 74.2637 8.2011C74.3896 7.88124 74.5529 7.62451 74.7537 7.43055C74.9647 7.22979 75.1944 7.08688 75.4428 7.00181C75.6912 6.91333 75.9533 6.86891 76.2289 6.86891C76.4773 6.86891 76.7103 6.90644 76.9281 6.9813C77.1459 7.05616 77.3485 7.14803 77.5357 7.25692C77.7194 7.36581 77.8827 7.47631 78.0257 7.5886C78.172 7.70089 78.2927 7.79787 78.388 7.87954H78.6124V6.03711C78.4729 5.96905 78.3096 5.89581 78.1225 5.81754C77.9387 5.73588 77.733 5.66263 77.505 5.59797C77.2873 5.54013 77.0489 5.49418 76.7903 5.46016C76.5351 5.42273 76.2477 5.4041 75.9278 5.4041ZM23.4568 5.55203V13.1522H25.4168V10.6768H26.6366C27.1913 10.6768 27.6543 10.6002 28.0252 10.4471C28.3995 10.294 28.7379 10.0676 29.0407 9.76817C29.2619 9.54699 29.4321 9.27468 29.5512 8.95142C29.6703 8.62475 29.7298 8.29145 29.7298 7.95118C29.7298 7.51222 29.6481 7.13603 29.4848 6.82297C29.3248 6.50992 29.0918 6.25319 28.7856 6.05242C28.5304 5.88569 28.2361 5.7614 27.9027 5.67973C27.5726 5.59466 27.1658 5.55203 26.6826 5.55203H23.4568ZM31.1183 5.55203V13.1522H36.6002V11.6822H33.0783V5.55203H31.1183ZM39.7392 5.55203L36.9318 13.1522H38.9071L39.433 11.6158H42.2505L42.7763 13.1522H44.8025L41.9951 5.55203H39.7392ZM44.9709 5.55203L47.819 10.3041V13.1522H49.779V10.2122L52.5812 5.55203H50.4273L48.84 8.49204L47.1964 5.55203H44.9709ZM53.597 5.55203V13.1522H59.0942V11.6822H55.5469V9.80399H58.8391V8.33399H55.5469V7.02204H59.0942V5.55203H53.597ZM60.7379 5.55203V13.1522H62.6875V10.3654H63.5909L65.6633 13.1522H68.0572L65.5203 9.89587C66.0035 9.66108 66.3745 9.36655 66.6332 9.01266C66.8952 8.65878 67.0261 8.20119 67.0261 7.63973C67.0261 7.2314 66.9411 6.89273 66.771 6.62391C66.6042 6.35169 66.3779 6.13069 66.092 5.96055C65.8096 5.79041 65.5067 5.67964 65.1834 5.62859C64.8601 5.57755 64.474 5.55203 64.0248 5.55203H60.7379ZM80.0518 5.55203V13.1522H85.549V11.6822H82.0017V9.80399H85.2939V8.33399H82.0017V7.02204H85.549V5.55203H80.0518ZM87.1926 5.55203V13.1522H88.9894V7.93586L92.2151 13.1522H94.1038V5.55203H92.307V9.90598L89.5355 5.55203H87.1926ZM95.2828 5.55203V7.02204H97.6563V13.1522H99.6163V7.02204H101.99V5.55203H95.2828ZM103.169 5.55203V13.1522H105.118V10.3654H106.022L108.094 13.1522H110.488L107.951 9.89587C108.434 9.66108 108.805 9.36655 109.064 9.01266C109.326 8.65878 109.457 8.20119 109.457 7.63973C109.457 7.2314 109.372 6.89273 109.202 6.62391C109.035 6.35169 108.809 6.13069 108.523 5.96055C108.241 5.79041 107.938 5.67964 107.614 5.62859C107.291 5.57755 106.905 5.55203 106.456 5.55203H103.169ZM113.306 5.55203L110.498 13.1522H112.474L112.999 11.6158H115.817L116.342 13.1522H118.369L115.562 5.55203H113.306ZM119.461 5.55203V13.1522H124.943V11.6822H121.421V5.55203H119.461ZM62.6875 6.95067H63.397C63.6318 6.95067 63.8378 6.95757 64.0147 6.97118C64.1917 6.98138 64.3463 7.01353 64.479 7.06797C64.6696 7.14624 64.8041 7.25343 64.8823 7.38954C64.9606 7.52565 64.9996 7.68899 64.9996 7.87954C64.9996 8.09392 64.9675 8.26593 64.9028 8.39524C64.8416 8.52114 64.7428 8.63675 64.6067 8.74224C64.4638 8.85112 64.2869 8.92079 64.076 8.95142C63.865 8.98204 63.6029 8.99735 63.2898 8.99735H62.6875V6.95067ZM105.118 6.95067H105.828C106.063 6.95067 106.269 6.95757 106.446 6.97118C106.623 6.98138 106.777 7.01353 106.91 7.06797C107.101 7.14624 107.235 7.25343 107.313 7.38954C107.392 7.52565 107.431 7.68899 107.431 7.87954C107.431 8.09392 107.398 8.26593 107.334 8.39524C107.273 8.52114 107.174 8.63675 107.038 8.74224C106.895 8.85112 106.718 8.92079 106.507 8.95142C106.296 8.98204 106.034 8.99735 105.721 8.99735H105.118V6.95067ZM25.4168 6.97118H25.7537C26.077 6.97118 26.3355 6.97628 26.5295 6.98649C26.7234 6.9933 26.9225 7.03744 27.1266 7.11911C27.2798 7.18036 27.4143 7.28934 27.53 7.44587C27.6457 7.59899 27.7036 7.78274 27.7036 7.99712C27.7036 8.2149 27.6745 8.40016 27.6166 8.55329C27.5622 8.70301 27.4721 8.83241 27.3462 8.9413C27.1999 9.0638 27.0179 9.14546 26.8002 9.1863C26.5858 9.22713 26.3117 9.24755 25.9782 9.24755H25.4168V6.97118ZM40.8417 7.49673L41.7758 10.2224H39.9076L40.8417 7.49673ZM114.408 7.49673L115.342 10.2224H113.474L114.408 7.49673Z" fill="#007AFF"/>
</svg>
