<svg width="143" height="109" viewBox="0 0 143 109" fill="none" xmlns="http://www.w3.org/2000/svg">
<path d="M70.4306 1.20198e-05C60.4553 -0.00360418 53.9198 0.808371 46.8007 2.93542C39.6139 5.08273 36.1154 7.84046 34.9883 12.2473C34.6168 13.6997 34.5959 14.4204 34.5959 25.882C34.5959 37.1209 34.6243 38.1478 34.9914 40.2949C35.9698 46.0179 38.0768 51.2286 40.889 54.8781C43.0732 57.7127 46.2649 60.7691 49.8839 63.4918C56.4322 68.4181 60.9381 70.9384 68.5039 73.9065C71.0741 74.9149 71.5148 74.8923 74.7384 73.5892C77.4758 72.4826 82.9347 69.819 85.3136 68.4289C87.0941 67.3885 91.1151 64.5569 93.3959 62.7372C96.9584 59.8951 100.968 55.6589 102.751 52.853C103.604 51.5101 105.312 47.3794 105.946 45.1271C107.382 40.0227 107.383 40.0031 107.46 26.5461C107.536 13.1311 107.502 12.637 106.341 10.2881C104.678 6.92274 101.352 4.8107 94.6699 2.8757C87.5042 0.800689 80.7874 0.00375562 70.4306 1.20198e-05ZM57.7852 11.5621L69.1715 11.5629C81.2918 11.5637 82.5691 11.6422 85.3599 12.554C89.2623 13.8289 91.8396 16.3424 93.1302 20.1318C93.8392 22.2135 93.9968 25.9402 93.4947 28.75C92.0646 36.753 87.4131 40.8543 78.2817 42.163C78.2817 42.163 76.2597 42.2886 75.7559 41.8127C75.3169 41.3981 75.1679 40.8194 75.1679 40.7385C75.1679 40.6577 74.6802 39.5256 74.0842 38.2231L73.0008 35.855L73.2998 34.1458C73.4642 33.2056 73.5991 31.7106 73.5991 30.8237C73.6001 28.3808 73.4727 28.4135 80.9985 28.9303C82.3815 29.0253 82.6325 28.9949 82.738 28.7198C82.8131 28.524 82.6879 28.2135 82.4176 27.9258C82.0458 27.53 81.8427 27.4698 81.1677 27.5564C79.9119 27.7175 76.6764 26.9555 74.864 26.0715L73.286 25.3016L73.3679 23.9691C73.413 23.2361 73.5309 22.4818 73.6298 22.2931C73.8521 21.8691 73.5929 21.3434 72.8886 20.7894C72.2958 20.3231 72.0392 20.3008 70.6657 20.5953C69.3423 20.8791 68.9948 21.4769 69.3067 22.9313C69.6355 24.4646 69.4718 24.8184 68.3588 24.9828C67.3222 25.1358 66.4889 25.5805 65.7565 26.3712C65.4888 26.6601 64.5899 27.4167 63.7586 28.0525C62.4835 29.0278 62.0625 29.5089 61.0659 31.1307C60.4031 32.2092 59.5393 33.3304 59.0982 33.6848C58.3004 34.3259 58.0708 34.8861 58.6059 34.8861C58.7676 34.8861 58.8999 34.9602 58.8999 35.0507C58.8999 35.1412 59.1308 35.3203 59.4129 35.4488C59.8483 35.6472 59.9658 35.6301 60.1908 35.3336C60.3365 35.1416 60.4583 34.9095 60.4618 34.818C60.4841 34.2228 61.2788 33.1822 62.4084 32.2696C63.9715 31.0066 66.3362 29.3981 66.6293 29.3985C66.744 29.3986 66.9783 30.1263 67.1499 31.0155C67.4432 32.5355 67.4409 32.6818 67.1112 33.4575C66.9184 33.9112 66.6986 34.6133 66.6228 35.0178C66.5307 35.5087 65.9331 36.4728 64.8259 37.9168C63.9135 39.1068 63.1108 40.0802 63.0423 40.0801C62.9738 40.08 62.3427 39.7908 61.6393 39.4378C60.2446 38.7376 59.1969 38.4931 58.4241 38.6871C57.7499 38.8563 56.5479 39.9399 56.5479 40.3783C56.5479 40.8528 56.8464 40.9256 57.9578 40.7236C59.1308 40.5104 59.7318 40.796 61.1229 42.2265C62.3883 43.5277 62.7005 43.6919 63.5457 43.5013C64.2531 43.3418 64.6115 43.1141 66.9589 41.3361C69.2978 39.5645 69.1784 39.5806 69.8709 40.9525C70.1971 41.5986 70.4639 42.1551 70.4639 42.1894C70.4639 42.2237 70.2249 42.2484 69.9326 42.2441C69.4036 42.2365 69.3963 42.2548 68.4695 46.0581C67.9572 48.1602 67.5351 49.9352 67.5312 50.0026C67.5273 50.07 67.7882 50.178 68.1112 50.2426C69.9983 50.6201 71.0403 52.8526 70.0712 54.4421C69.8559 54.7951 69.4373 55.184 69.1409 55.3061C68.4912 55.5736 51.06 55.6593 51.0599 55.3949C51.0599 55.3018 51.2769 53.9347 51.5423 52.3569C51.8076 50.7791 52.7382 44.8135 53.6102 39.1001C54.4823 33.3867 55.4123 27.3009 55.677 25.5761C56.3801 20.9954 57.3122 14.8271 57.565 13.0811L57.7852 11.5621ZM67.2766 50.8011C66.6074 50.8012 65.9656 51.0218 65.4923 51.4144C65.0191 51.807 64.7532 52.3395 64.7531 52.8947C64.7531 53.1697 64.8184 53.442 64.9452 53.696C65.072 53.9501 65.2578 54.1809 65.4922 54.3754C65.7265 54.5698 66.0047 54.7241 66.3109 54.8293C66.617 54.9345 66.9452 54.9887 67.2766 54.9887C67.6081 54.9888 67.9363 54.9346 68.2425 54.8294C68.5487 54.7242 68.8269 54.5699 69.0613 54.3755C69.2957 54.181 69.4816 53.9502 69.6084 53.6961C69.7353 53.442 69.8005 53.1697 69.8005 52.8947C69.8004 52.3394 69.5345 51.8069 69.0611 51.4143C68.5878 51.0216 67.9459 50.8011 67.2766 50.8011ZM73.4594 85.1141C72.6496 85.1141 71.9014 85.2428 71.2154 85.5C70.5341 85.7573 69.9625 86.1217 69.5004 86.5933C69.0192 87.084 68.6527 87.6725 68.4002 88.3585C68.1477 89.0445 68.0212 89.8091 68.0212 90.6523C68.0212 91.5574 68.1523 92.3553 68.4143 93.046C68.6811 93.7368 69.0552 94.3131 69.5364 94.7752C70.0175 95.2373 70.5913 95.5853 71.2582 95.8187C71.93 96.0522 72.6613 96.1686 73.4521 96.1686C73.9857 96.1686 74.4048 96.1426 74.7097 96.0902C75.0146 96.0378 75.3412 95.9617 75.6889 95.8616C75.9557 95.7854 76.2104 95.6946 76.4534 95.5898C76.6964 95.485 76.9511 95.3732 77.2179 95.2541V92.7103H76.9323C76.8037 92.8246 76.6393 92.9604 76.4392 93.1176C76.2391 93.2748 76.0223 93.4224 75.7888 93.5605C75.5125 93.732 75.2099 93.8678 74.8812 93.9678C74.5572 94.0679 74.2285 94.1179 73.8951 94.1179C73.5473 94.1179 73.195 94.0632 72.8377 93.9537C72.4804 93.8393 72.1564 93.651 71.8658 93.389C71.5799 93.1318 71.3416 92.7791 71.1511 92.3313C70.9653 91.8835 70.8724 91.3261 70.8724 90.6592C70.8724 90.0208 70.9581 89.4777 71.1296 89.0299C71.3059 88.5821 71.5346 88.2227 71.8156 87.9512C72.111 87.6701 72.4325 87.47 72.7803 87.3509C73.1281 87.2271 73.495 87.1649 73.8809 87.1649C74.2287 87.1649 74.5549 87.2174 74.8597 87.3222C75.1646 87.427 75.4483 87.5556 75.7104 87.7081C75.9676 87.8605 76.1963 88.0152 76.3964 88.1724C76.6012 88.3297 76.7702 88.4654 76.9036 88.5798H77.2179V86.0004C77.0226 85.9051 76.7939 85.8025 76.5319 85.693C76.2746 85.5786 75.9867 85.4761 75.6675 85.3856C75.3626 85.3046 75.0289 85.2403 74.6668 85.1926C74.3095 85.1402 73.9072 85.1141 73.4594 85.1141ZM0 85.3213V95.9615H2.744V92.4959H4.45173C5.22824 92.4959 5.87639 92.3887 6.39565 92.1744C6.91968 91.96 7.39343 91.6431 7.81741 91.2238C8.12707 90.9142 8.36539 90.533 8.53212 90.0804C8.69886 89.6231 8.7821 89.1564 8.7821 88.6801C8.7821 88.0655 8.66777 87.5388 8.4391 87.1006C8.2152 86.6623 7.889 86.3029 7.46025 86.0218C7.10296 85.7884 6.69101 85.6144 6.22415 85.5C5.76205 85.3809 5.19251 85.3213 4.51604 85.3213H0ZM10.726 85.3213V95.9615H18.4006V93.9035H13.47V85.3213H10.726ZM22.7953 85.3213L18.865 95.9615H21.6304L22.3666 93.8105H26.3111L27.0472 95.9615H29.8839L25.9535 85.3213H22.7953ZM30.1197 85.3213L34.1071 91.9742V95.9615H36.8511V91.8455L40.7741 85.3213H37.7587L35.5365 89.4373L33.2354 85.3213H30.1197ZM42.1963 85.3213V95.9615H49.8923V93.9035H44.9261V91.274H49.5352V89.216H44.9261V87.3793H49.8923V85.3213H42.1963ZM52.1934 85.3213V95.9615H54.9229V92.0599H56.1877L59.089 95.9615H62.4405L58.8888 91.4026C59.5653 91.0739 60.0848 90.6616 60.4469 90.1661C60.8137 89.6707 60.997 89.0301 60.997 88.244C60.997 87.6724 60.878 87.1982 60.6398 86.8219C60.4064 86.4408 60.0894 86.1314 59.6893 85.8932C59.2939 85.655 58.8698 85.4999 58.4172 85.4284C57.9646 85.357 57.424 85.3213 56.7952 85.3213H52.1934ZM79.233 85.3213V95.9615H86.9291V93.9035H81.9628V91.274H86.5719V89.216H81.9628V87.3793H86.9291V85.3213H79.233ZM89.2301 85.3213V95.9615H91.7456V88.6586L96.2617 95.9615H98.9057V85.3213H96.3903V91.4168L92.5101 85.3213H89.2301ZM100.556 85.3213V87.3793H103.879V95.9615H106.623V87.3793H109.946V85.3213H100.556ZM111.597 85.3213V95.9615H114.326V92.0599H115.591L118.492 95.9615H121.844L118.292 91.4026C118.969 91.0739 119.488 90.6616 119.85 90.1661C120.217 89.6707 120.4 89.0301 120.4 88.244C120.4 87.6724 120.281 87.1982 120.043 86.8219C119.81 86.4408 119.493 86.1314 119.093 85.8932C118.697 85.655 118.273 85.4999 117.821 85.4284C117.368 85.357 116.827 85.3213 116.199 85.3213H111.597ZM125.788 85.3213L121.858 95.9615H124.623L125.36 93.8105H129.304L130.04 95.9615H132.877L128.947 85.3213H125.788ZM134.406 85.3213V95.9615H142.081V93.9035H137.15V85.3213H134.406ZM54.9229 87.2793H55.9163C56.245 87.2793 56.5333 87.289 56.781 87.3081C57.0288 87.3223 57.2453 87.3673 57.4311 87.4436C57.6978 87.5531 57.8861 87.7032 57.9957 87.8938C58.1053 88.0843 58.1599 88.313 58.1599 88.5798C58.1599 88.8799 58.1149 89.1207 58.0244 89.3017C57.9387 89.478 57.8004 89.6399 57.6098 89.7875C57.4097 89.94 57.1622 90.0375 56.8668 90.0804C56.5714 90.1233 56.2045 90.1447 55.7662 90.1447H54.9229V87.2793ZM114.326 87.2793H115.32C115.648 87.2793 115.937 87.289 116.184 87.3081C116.432 87.3223 116.649 87.3673 116.834 87.4436C117.101 87.5531 117.289 87.7032 117.399 87.8938C117.509 88.0843 117.563 88.313 117.563 88.5798C117.563 88.8799 117.518 89.1207 117.428 89.3017C117.342 89.478 117.204 89.6399 117.013 89.7875C116.813 89.94 116.565 90.0375 116.27 90.0804C115.975 90.1233 115.608 90.1447 115.17 90.1447H114.326V87.2793ZM2.744 87.3081H3.21563C3.66819 87.3081 4.03012 87.3152 4.30166 87.3295C4.5732 87.339 4.85189 87.4008 5.13773 87.5152C5.3521 87.6009 5.5404 87.7535 5.70237 87.9726C5.86435 88.187 5.94546 88.4442 5.94546 88.7444C5.94546 89.0493 5.90471 89.3086 5.82373 89.523C5.7475 89.7326 5.62139 89.9138 5.44513 90.0662C5.24028 90.2377 4.98554 90.3521 4.68065 90.4092C4.38052 90.4664 3.99677 90.495 3.52991 90.495H2.744V87.3081ZM24.3388 88.0438L25.6465 91.8597H23.0311L24.3388 88.0438ZM127.332 88.0438L128.64 91.8597H126.024L127.332 88.0438ZM25.6538 102.515C24.7987 102.515 24.128 102.764 23.6421 103.262C23.1562 103.758 22.9132 104.433 22.9132 105.288C22.9132 106.136 23.1562 106.81 23.6421 107.31C24.128 107.808 24.7987 108.057 25.6538 108.057C26.5113 108.057 27.183 107.808 27.6689 107.31C28.1548 106.81 28.3978 106.136 28.3978 105.288C28.3978 104.433 28.1534 103.758 27.6651 103.262C27.1768 102.764 26.5065 102.515 25.6538 102.515ZM80.1265 102.515C79.2714 102.515 78.6007 102.764 78.1148 103.262C77.6289 103.758 77.3859 104.433 77.3859 105.288C77.3859 106.136 77.6289 106.81 78.1148 107.31C78.6007 107.808 79.2714 108.057 80.1265 108.057C80.984 108.057 81.6557 107.808 82.1416 107.31C82.6275 106.81 82.8705 106.136 82.8705 105.288C82.8705 104.433 82.6261 103.758 82.1378 103.262C81.6495 102.764 80.9792 102.515 80.1265 102.515ZM110.7 102.515C109.845 102.515 109.174 102.764 108.688 103.262C108.202 103.758 107.959 104.433 107.959 105.288C107.959 106.136 108.202 106.81 108.688 107.31C109.174 107.808 109.845 108.057 110.7 108.057C111.557 108.057 112.229 107.808 112.715 107.31C113.201 106.81 113.444 106.136 113.444 105.288C113.444 104.433 113.199 103.758 112.711 103.262C112.223 102.764 111.553 102.515 110.7 102.515ZM46.2372 102.523C45.313 102.523 44.5924 102.776 44.0755 103.284C43.5586 103.789 43.3003 104.454 43.3003 105.281C43.3003 106.148 43.5565 106.828 44.0686 107.321C44.5807 107.812 45.2892 108.057 46.1944 108.057C46.585 108.057 46.977 108.012 47.37 107.921C47.763 107.828 48.0785 107.736 48.3167 107.643V105.017H45.8621V106.02H46.9232V107.064C46.8708 107.069 46.8126 107.072 46.7483 107.075C46.6864 107.077 46.6292 107.078 46.5768 107.078C45.967 107.078 45.5061 106.922 45.1941 106.61C44.882 106.298 44.7259 105.848 44.7259 105.259C44.7259 104.971 44.7688 104.717 44.8545 104.498C44.9427 104.277 45.0616 104.095 45.2117 103.952C45.3689 103.804 45.5465 103.695 45.7442 103.623C45.9419 103.552 46.1623 103.516 46.4053 103.516C46.6125 103.516 46.8076 103.543 46.991 103.598C47.1768 103.653 47.339 103.718 47.4772 103.795C47.5963 103.859 47.7199 103.938 47.8485 104.03C47.9771 104.121 48.075 104.191 48.1417 104.241H48.2952V102.994C47.907 102.806 47.5543 102.681 47.2375 102.619C46.9207 102.555 46.5874 102.523 46.2372 102.523ZM100.206 102.53C99.5082 102.53 98.9366 102.687 98.4911 103.001C98.0481 103.313 97.8266 103.717 97.8266 104.213C97.8266 104.582 97.9241 104.891 98.1194 105.141C98.3171 105.389 98.6401 105.586 99.088 105.731C99.2833 105.795 99.4916 105.849 99.7131 105.892C99.937 105.932 100.149 105.976 100.349 106.024C100.539 106.069 100.683 106.135 100.781 106.221C100.881 106.304 100.932 106.404 100.932 106.521C100.932 106.647 100.897 106.742 100.828 106.807C100.761 106.871 100.675 106.924 100.571 106.967C100.485 107.001 100.374 107.024 100.238 107.039C100.103 107.053 99.9928 107.06 99.9095 107.06C99.5855 107.06 99.2475 106.999 98.895 106.878C98.5449 106.756 98.2279 106.583 97.9445 106.356H97.7944V107.632C98.0803 107.751 98.3865 107.85 98.7128 107.928C99.0415 108.004 99.4259 108.043 99.8666 108.043C100.629 108.043 101.232 107.879 101.675 107.553C102.12 107.224 102.343 106.798 102.343 106.274C102.343 105.907 102.245 105.61 102.05 105.381C101.857 105.15 101.557 104.968 101.149 104.834C100.942 104.768 100.748 104.715 100.567 104.677C100.388 104.639 100.201 104.6 100.006 104.559C99.7082 104.497 99.506 104.429 99.3988 104.355C99.2916 104.279 99.238 104.171 99.238 104.03C99.238 103.938 99.2712 103.855 99.3379 103.784C99.4046 103.71 99.4843 103.655 99.5772 103.619C99.682 103.576 99.7906 103.548 99.9026 103.534C100.017 103.517 100.131 103.509 100.246 103.509C100.57 103.509 100.886 103.567 101.196 103.684C101.508 103.798 101.771 103.941 101.985 104.112H102.132V102.887C101.882 102.785 101.585 102.7 101.242 102.633C100.901 102.564 100.556 102.53 100.206 102.53ZM17.186 102.626L19.1797 105.953V107.946H20.5517V105.888L22.5132 102.626H21.0053L19.894 104.684L18.7436 102.626H17.186ZM29.3694 102.626V106.024C29.3694 106.679 29.5684 107.181 29.9662 107.532C30.3663 107.882 30.9559 108.057 31.7348 108.057C32.5137 108.057 33.1032 107.882 33.5034 107.532C33.9035 107.181 34.1036 106.678 34.1036 106.02V102.626H32.7243V105.945C32.7243 106.329 32.6447 106.607 32.4851 106.781C32.3279 106.955 32.0778 107.042 31.7348 107.042C31.387 107.042 31.1358 106.952 30.981 106.771C30.8262 106.59 30.7486 106.314 30.7486 105.945V102.626H29.3694ZM35.3864 102.626V107.946H36.7511V105.995H37.3836L38.834 107.946H40.51L38.7341 105.667C39.0724 105.502 39.3321 105.296 39.5131 105.049C39.6966 104.801 39.788 104.48 39.788 104.087C39.788 103.802 39.7287 103.565 39.6096 103.377C39.4929 103.186 39.3342 103.031 39.1342 102.912C38.9365 102.793 38.7246 102.716 38.4983 102.68C38.272 102.644 38.0015 102.626 37.6871 102.626H35.3864ZM50.9179 102.626L48.9525 107.946H50.3353L50.7035 106.871H52.6758L53.0436 107.946H54.462L52.497 102.626H50.9179ZM55.2268 102.626V107.946H56.52V104.384L57.5061 106.696H58.4532L59.4393 104.384V107.946H60.804V102.626H59.2104L58.0171 105.295L56.8201 102.626H55.2268ZM62.1619 102.626V107.946H66.0099V106.917H63.5266V105.602H65.8311V104.573H63.5266V103.655H66.0099V102.626H62.1619ZM71.6587 102.626L73.6524 105.953V107.946H75.0244V105.888L76.9859 102.626H75.478L74.3667 104.684L73.2163 102.626H71.6587ZM83.8421 102.626V106.024C83.8421 106.679 84.0411 107.181 84.4389 107.532C84.839 107.882 85.4286 108.057 86.2075 108.057C86.9864 108.057 87.5759 107.882 87.9761 107.532C88.3762 107.181 88.5763 106.678 88.5763 106.02V102.626H87.197V105.945C87.197 106.329 87.1174 106.607 86.9578 106.781C86.8006 106.955 86.5505 107.042 86.2075 107.042C85.8597 107.042 85.6085 106.952 85.4537 106.771C85.2989 106.59 85.2213 106.314 85.2213 105.945V102.626H83.8421ZM89.8591 102.626V107.946H91.2238V105.995H91.8562L93.3067 107.946H94.9823L93.2068 105.667C93.545 105.502 93.8048 105.296 93.9858 105.049C94.1692 104.801 94.2607 104.48 94.2607 104.087C94.2607 103.802 94.2014 103.565 94.0823 103.377C93.9656 103.186 93.8069 103.031 93.6068 102.912C93.4091 102.793 93.1973 102.716 92.971 102.68C92.7447 102.644 92.4742 102.626 92.1598 102.626H89.8591ZM102.75 102.626V103.655H104.411V107.946H105.783V103.655H107.445V102.626H102.75ZM114.49 102.626V107.946H115.856V105.995H116.488L117.938 107.946H119.614L117.838 105.667C118.177 105.502 118.436 105.296 118.617 105.049C118.801 104.801 118.892 104.48 118.892 104.087C118.892 103.802 118.833 103.565 118.714 103.377C118.597 103.186 118.439 103.031 118.239 102.912C118.041 102.793 117.829 102.716 117.603 102.68C117.376 102.644 117.106 102.626 116.791 102.626H114.49ZM119.568 102.626L121.561 105.953V107.946H122.933V105.888L124.895 102.626H123.387L122.276 104.684L121.125 102.626H119.568ZM25.6572 103.519C25.8287 103.519 25.9931 103.552 26.1503 103.616C26.3099 103.68 26.4503 103.784 26.5718 103.927C26.6909 104.065 26.7873 104.246 26.8612 104.47C26.935 104.694 26.9722 104.965 26.9722 105.285C26.9722 105.582 26.94 105.842 26.8757 106.063C26.8114 106.282 26.7124 106.473 26.5791 106.635C26.46 106.778 26.3206 106.884 26.161 106.953C26.0014 107.02 25.8335 107.053 25.6572 107.053C25.481 107.053 25.313 107.02 25.1535 106.953C24.9939 106.886 24.8545 106.783 24.7354 106.642C24.6163 106.501 24.5199 106.321 24.446 106.099C24.3746 105.875 24.3388 105.605 24.3388 105.288C24.3388 104.978 24.3756 104.707 24.4495 104.473C24.5257 104.238 24.6236 104.053 24.7427 103.919C24.8713 103.776 25.0117 103.674 25.1642 103.612C25.319 103.55 25.4834 103.519 25.6572 103.519ZM80.1299 103.519C80.3014 103.519 80.4658 103.552 80.623 103.616C80.7826 103.68 80.923 103.784 81.0445 103.927C81.1636 104.065 81.26 104.246 81.3339 104.47C81.4077 104.694 81.4449 104.965 81.4449 105.285C81.4449 105.582 81.4127 105.842 81.3484 106.063C81.2841 106.282 81.1851 106.473 81.0517 106.635C80.9326 106.778 80.7933 106.884 80.6337 106.953C80.4741 107.02 80.3062 107.053 80.1299 107.053C79.9537 107.053 79.7857 107.02 79.6261 106.953C79.4666 106.886 79.3272 106.783 79.2081 106.642C79.089 106.501 78.9926 106.321 78.9187 106.099C78.8473 105.875 78.8115 105.605 78.8115 105.288C78.8115 104.978 78.8483 104.707 78.9222 104.473C78.9984 104.238 79.0963 104.053 79.2154 103.919C79.344 103.776 79.4844 103.674 79.6369 103.612C79.7917 103.55 79.956 103.519 80.1299 103.519ZM110.703 103.519C110.875 103.519 111.039 103.552 111.196 103.616C111.356 103.68 111.496 103.784 111.618 103.927C111.737 104.065 111.833 104.246 111.907 104.47C111.981 104.694 112.018 104.965 112.018 105.285C112.018 105.582 111.986 105.842 111.922 106.063C111.857 106.282 111.758 106.473 111.625 106.635C111.506 106.778 111.367 106.884 111.207 106.953C111.047 107.02 110.88 107.053 110.703 107.053C110.527 107.053 110.359 107.02 110.199 106.953C110.04 106.886 109.901 106.783 109.781 106.642C109.662 106.501 109.566 106.321 109.492 106.099C109.421 105.875 109.385 105.605 109.385 105.288C109.385 104.978 109.422 104.707 109.495 104.473C109.572 104.238 109.67 104.053 109.789 103.919C109.917 103.776 110.058 103.674 110.21 103.612C110.365 103.55 110.529 103.519 110.703 103.519ZM36.7511 103.605H37.2477C37.412 103.605 37.5564 103.61 37.6802 103.619C37.8041 103.626 37.9123 103.649 38.0052 103.687C38.1386 103.742 38.2326 103.817 38.2874 103.913C38.3422 104.008 38.3697 104.122 38.3697 104.256C38.3697 104.406 38.3472 104.526 38.3019 104.616C38.259 104.704 38.1897 104.785 38.0944 104.859C37.9944 104.935 37.8708 104.984 37.7231 105.006C37.5754 105.027 37.3918 105.038 37.1726 105.038H36.7511V103.605ZM91.2238 103.605H91.7203C91.8847 103.605 92.0291 103.61 92.1529 103.619C92.2768 103.626 92.385 103.649 92.4779 103.687C92.6113 103.742 92.7053 103.817 92.7601 103.913C92.8148 104.008 92.8424 104.122 92.8424 104.256C92.8424 104.406 92.8199 104.526 92.7746 104.616C92.7317 104.704 92.6624 104.785 92.5671 104.859C92.4671 104.935 92.3435 104.984 92.1958 105.006C92.0481 105.027 91.8644 105.038 91.6453 105.038H91.2238V103.605ZM115.856 103.605H116.352C116.516 103.605 116.66 103.61 116.784 103.619C116.908 103.626 117.017 103.649 117.11 103.687C117.243 103.742 117.337 103.817 117.392 103.913C117.447 104.008 117.474 104.122 117.474 104.256C117.474 104.406 117.451 104.526 117.406 104.616C117.363 104.704 117.294 104.785 117.199 104.859C117.099 104.935 116.975 104.984 116.827 105.006C116.679 105.027 116.496 105.038 116.277 105.038H115.856V103.605ZM51.6896 103.988L52.3435 105.896H51.0358L51.6896 103.988ZM67.1354 106.542V107.946H68.4714V106.542H67.1354Z" fill="white"/>
</svg>
